<svg viewBox="0 0 96 96" xmlns="http://www.w3.org/2000/svg">
  <defs>
    <linearGradient id="acBg" x1="0" y1="0" x2="1" y2="1">
      <stop offset="0%" stop-color="#1b2536"/>
      <stop offset="100%" stop-color="#05070c"/>
    </linearGradient>
    <linearGradient id="acEdge" x1="0" y1="0" x2="1" y2="1">
      <stop offset="0%" stop-color="#f6dea0"/>
      <stop offset="100%" stop-color="#96773f"/>
    </linearGradient>
    <linearGradient id="acCap" x1="0" y1="0" x2="1" y2="1">
      <stop offset="0%" stop-color="#fff8e6"/>
      <stop offset="50%" stop-color="#e9c67e"/>
      <stop offset="100%" stop-color="#8a6f37"/>
    </linearGradient>
    <filter id="acShadow" x="-40%" y="-40%" width="180%" height="180%">
      <feDropShadow dx="0" dy="2" stdDeviation="2" flood-color="#000000" flood-opacity="0.5"/>
    </filter>
  </defs>

  <rect x="2" y="2" width="92" height="92" rx="22" fill="url(#acBg)" stroke="url(#acEdge)" stroke-width="2"/>
  <path d="M10 24 Q10 10 24 10 H72 Q86 10 86 24" fill="none" stroke="#ffffff" stroke-opacity="0.12" stroke-width="3" stroke-linecap="round"/>

  <g filter="url(#acShadow)">
    <path d="M48 30 L82 45 L48 60 L14 45 Z" fill="url(#acCap)"/>
    <path d="M30 51.5 V66 Q30 72 48 72 Q66 72 66 66 V51.5 L48 59 Z" fill="#3a2f18" fill-opacity="0.55"/>
    <path d="M30 51.5 V66 Q30 72 48 72 Q66 72 66 66 V51.5 L48 59 Z" fill="none" stroke="url(#acEdge)" stroke-width="1.4" stroke-opacity="0.8"/>
    <line x1="79" y1="46.5" x2="79" y2="66" stroke="url(#acEdge)" stroke-width="2.6" stroke-linecap="round"/>
    <circle cx="79" cy="68.5" r="3.4" fill="url(#acCap)"/>
  </g>
</svg>
